<svg xmlns="http://www.w3.org/2000/svg" width="26.908" height="26.132" viewBox="0 0 26.908 26.132"><g transform="translate(-176.468 -182.437)"><path d="M284.136,487.083a2.824,2.824,0,1,0-.827,2A2.824,2.824,0,0,0,284.136,487.083Zm-4.368,0a1.569,1.569,0,1,1,.46,1.11A1.569,1.569,0,0,1,279.768,487.083Z" transform="translate(-95.026 -281.589)" fill="#ed1c24"/><path d="M281.312,484.009a3.074,3.074,0,1,1-2.174.9A3.054,3.054,0,0,1,281.312,484.009Zm0,5.649a2.574,2.574,0,1,0-1.82-.754A2.557,2.557,0,0,0,281.312,489.658Zm.025-4.393a1.819,1.819,0,1,1-1.286.533A1.806,1.806,0,0,1,281.337,485.264Zm0,3.138a1.319,1.319,0,1,0-.932-2.252,1.328,1.328,0,0,0-.387.933,1.319,1.319,0,0,0,1.319,1.319Z" transform="translate(-95.026 -281.589)" fill="#ed1c24"/><path d="M440.283,487.083a2.824,2.824,0,1,0-.827,2A2.825,2.825,0,0,0,440.283,487.083Zm-4.368,0a1.569,1.569,0,1,1,.459,1.11A1.57,1.57,0,0,1,435.914,487.083Z" transform="translate(-240.826 -281.589)" fill="#ed1c24"/><path d="M437.458,484.009a3.054,3.054,0,0,1,2.174.9,3.1,3.1,0,0,1,.9,2.174,3.074,3.074,0,1,1-6.149,0,3.1,3.1,0,0,1,.9-2.174A3.055,3.055,0,0,1,437.458,484.009Zm0,5.649a2.574,2.574,0,0,0,2.574-2.574,2.592,2.592,0,0,0-.754-1.82,2.574,2.574,0,0,0-3.641,0,2.592,2.592,0,0,0-.754,1.82,2.574,2.574,0,0,0,2.574,2.574Zm.025-4.393a1.819,1.819,0,1,1-1.286.533A1.807,1.807,0,0,1,437.484,485.264Zm0,3.138a1.319,1.319,0,1,0-.933-2.252,1.329,1.329,0,0,0-.386.933,1.319,1.319,0,0,0,1.319,1.319Z" transform="translate(-240.826 -281.589)" fill="#ed1c24"/><path d="M203,186.867a.628.628,0,0,0-.5-.248H189.847a.628.628,0,0,0,0,1.255h11.825l-1.735,6.182a2.511,2.511,0,0,1-2.416,1.833H184.786l-1.8-10.591a3.138,3.138,0,0,0-3.1-2.611h-2.536a.628.628,0,1,0,0,1.255h2.536a1.883,1.883,0,0,1,1.855,1.569l2.2,12.907h0a3.138,3.138,0,0,0,3.094,2.611h11.8a.628.628,0,1,0,0-1.255H187.039a1.883,1.883,0,0,1-1.858-1.569L185,197.148H197.52a3.765,3.765,0,0,0,3.624-2.749l1.958-6.982a.628.628,0,0,0-.1-.549Z" transform="translate(0 0)" fill="#ed1c24"/><path d="M179.889,182.437a3.388,3.388,0,0,1,3.339,2.819L185,195.639H197.52a2.261,2.261,0,0,0,2.176-1.65l1.646-5.865H189.847a.878.878,0,0,1,0-1.755H202.5a.876.876,0,0,1,.843,1.115l-1.958,6.982a4.015,4.015,0,0,1-3.865,2.931H185.3l.13.766a1.633,1.633,0,0,0,1.61,1.361h11.791a.878.878,0,1,1,0,1.755h-11.8a3.388,3.388,0,0,1-3.341-2.819l-.05-.292h0l-2.147-12.615a1.633,1.633,0,0,0-1.608-1.361h-2.535a.878.878,0,1,1,0-1.755Zm17.632,13.7H184.575l-1.84-10.8a2.888,2.888,0,0,0-2.846-2.4h-2.543a.378.378,0,1,0,0,.755h2.536a2.133,2.133,0,0,1,2.1,1.777l2.2,12.944a2.888,2.888,0,0,0,2.84,2.366h11.8a.378.378,0,1,0,0-.755H187.039a2.133,2.133,0,0,1-2.1-1.777l-.228-1.349H197.52a3.515,3.515,0,0,0,3.384-2.566l1.958-6.982a.376.376,0,0,0-.362-.48H189.847a.378.378,0,0,0,0,.755H202l-1.824,6.5a2.761,2.761,0,0,1-2.657,2.015Z" transform="translate(0 0)" fill="#ed1c24"/></g></svg>