<svg xmlns="http://www.w3.org/2000/svg" width="19.589" height="19.587" viewBox="0 0 19.589 19.587"><path d="M23.513,19.84a16.453,16.453,0,0,0-3.437-2.3c-1.03-.495-1.407-.484-2.137.041-.607.439-1,.847-1.7.694A10.13,10.13,0,0,1,12.83,15.75a10.057,10.057,0,0,1-2.524-3.412c-.148-.7.26-1.091.694-1.7.525-.729.541-1.107.041-2.137a16.128,16.128,0,0,0-2.3-3.437c-.75-.75-.918-.586-1.331-.439a7.574,7.574,0,0,0-1.219.648A3.677,3.677,0,0,0,4.727,6.821c-.291.627-.627,1.8,1.086,4.844A27.032,27.032,0,0,0,10.566,18h0l.005.005.005.005h0a27.138,27.138,0,0,0,6.339,4.753c3.05,1.713,4.217,1.377,4.845,1.086A3.614,3.614,0,0,0,23.3,22.39a7.574,7.574,0,0,0,.648-1.219C24.1,20.758,24.268,20.589,23.513,19.84Z" transform="translate(-4.49 -4.502)" fill="#fff"/></svg>