<svg xmlns="http://www.w3.org/2000/svg" width="20.575" height="22.295" viewBox="0 0 20.575 22.295"><g transform="translate(-73.677 -37.184)"><g transform="translate(73.676 37.184)"><path d="M172.041,181.279v13.568c0,.589,0,1.178,0,1.767a2.621,2.621,0,0,1-.019.3c.009-.063.016-.124.026-.188a2.22,2.22,0,0,1-.148.547l.07-.169a2.222,2.222,0,0,1-.188.354c-.007.012-.059.1-.07.1.014,0,.129-.16.035-.047a1.991,1.991,0,0,1-.134.148q-.07.07-.148.134c-.045.038-.134.082.047-.035-.031.019-.059.042-.087.061a2.2,2.2,0,0,1-.366.2l.169-.07a2.221,2.221,0,0,1-.547.148l.188-.026a10.486,10.486,0,0,1-1.3.019h-8.649c-.42,0-.84,0-1.26,0a2.5,2.5,0,0,1-.3-.019l.188.026a2.221,2.221,0,0,1-.547-.148l.169.07a2.224,2.224,0,0,1-.354-.188c-.012-.007-.1-.059-.1-.07,0,.014.16.129.047.035a1.991,1.991,0,0,1-.148-.134q-.07-.07-.134-.148c-.038-.045-.082-.134.035.047-.019-.031-.042-.059-.061-.087a2.2,2.2,0,0,1-.2-.366l.07.169a2.221,2.221,0,0,1-.148-.547c.009.063.016.124.026.188a5.3,5.3,0,0,1-.019-.641V183.206c0-.631.009-1.263,0-1.894v-.028a.7.7,0,0,0-1.408,0v14.566a9.653,9.653,0,0,0,.012,1.009,2.91,2.91,0,0,0,.441,1.319,2.962,2.962,0,0,0,.981.941,3,3,0,0,0,1.514.387h10.789a2.879,2.879,0,0,0,2.931-2.746c.007-.11,0-.221,0-.331V181.281a.706.706,0,0,0-1.413,0Z" transform="translate(-154.823 -177.211)" fill="#ed1c24"/><path d="M93.547,175.457H75.165c-.249,0-.5,0-.751,0h-.033a.7.7,0,1,0,0,1.408H92.763c.249,0,.5,0,.751,0h.033a.7.7,0,0,0,0-1.408Z" transform="translate(-73.676 -172.21)" fill="#ed1c24"/><path d="M277.259,41.134V39.67a4.318,4.318,0,0,0-.049-.8,2.129,2.129,0,0,0-.958-1.366,2.523,2.523,0,0,0-1.42-.324h-6.48a5.963,5.963,0,0,0-.915.04,2.129,2.129,0,0,0-1.4.939,2.165,2.165,0,0,0-.34,1.218v1.753a.7.7,0,1,0,1.408,0v-.979a8.414,8.414,0,0,1,.014-1.033c-.009.063-.016.124-.026.188a1.637,1.637,0,0,1,.1-.364l-.07.169a1.454,1.454,0,0,1,.124-.23l.035-.049c.04-.063-.106.124-.054.07.033-.033.059-.068.092-.1s.061-.054.089-.082c.07-.066-.07.056-.07.054a.265.265,0,0,1,.049-.035,1.524,1.524,0,0,1,.244-.131l-.169.07a1.6,1.6,0,0,1,.364-.1l-.188.026a7.257,7.257,0,0,1,.875-.014h5.76a8.571,8.571,0,0,1,1.042.014l-.188-.026a1.636,1.636,0,0,1,.364.1l-.169-.07a1.452,1.452,0,0,1,.23.124l.049.035c.063.04-.124-.106-.07-.054.033.033.068.059.1.092s.054.061.082.089c.066.07-.056-.07-.054-.07a.266.266,0,0,1,.035.049,1.522,1.522,0,0,1,.131.244l-.07-.169a1.6,1.6,0,0,1,.1.364c-.009-.063-.016-.124-.026-.188a8.42,8.42,0,0,1,.014,1.033v.979a.712.712,0,0,0,.7.7.724.724,0,0,0,.709-.709Z" transform="translate(-261.193 -37.184)" fill="#ed1c24"/><path d="M302.526,307.181v10.172c0,.472-.009.943,0,1.413v.021a.7.7,0,0,0,1.408,0V308.615c0-.472.009-.944,0-1.413v-.021a.7.7,0,0,0-1.408,0Z" transform="translate(-297.151 -300.156)" fill="#ed1c24"/><path d="M483.235,318.587V308.415c0-.472.009-.943,0-1.413v-.021a.7.7,0,0,0-1.408,0v10.172c0,.472-.009.944,0,1.413v.021a.7.7,0,0,0,1.408,0Z" transform="translate(-472.243 -299.961)" fill="#ed1c24"/><path d="M662.535,318.587V308.415c0-.472.009-.943,0-1.413v-.021a.7.7,0,0,0-1.408,0v10.172c0,.472-.009.944,0,1.413v.021a.7.7,0,0,0,1.408,0Z" transform="translate(-647.335 -299.961)" fill="#ed1c24"/></g></g></svg>