<svg xmlns="http://www.w3.org/2000/svg" width="27.076" height="18.276" viewBox="0 0 27.076 18.276"><path d="M.072,20.726V5.687q0-.026.078-.5L9,12.762.176,21.248a2.213,2.213,0,0,1-.1-.522ZM1.247,4.146a1.125,1.125,0,0,1,.444-.078H25.529a1.478,1.478,0,0,1,.47.078l-8.877,7.6-1.175.94L13.623,14.59,11.3,12.684l-1.175-.94Zm.026,18.12,8.9-8.538,3.446,2.794,3.446-2.794,8.9,8.538a1.254,1.254,0,0,1-.444.078H1.691a1.183,1.183,0,0,1-.418-.078Zm16.971-9.5,8.825-7.572a1.558,1.558,0,0,1,.078.5V20.726a2,2,0,0,1-.078.522Z" transform="translate(-0.072 -4.068)" fill="#fff"/></svg>