<svg xmlns="http://www.w3.org/2000/svg" width="200" height="35.402" viewBox="0 0 200 35.402"><g transform="translate(0.001 0.002)"><path d="M9.812,19A10.144,10.144,0,0,1,5.9,18.254a9.57,9.57,0,0,1-3.1-2.026,9.332,9.332,0,0,1-2.048-3A9.176,9.176,0,0,1,0,9.548V9.5A9.31,9.31,0,0,1,2.818,2.778,9.842,9.842,0,0,1,5.95.742,10.144,10.144,0,0,1,9.864,0a10.15,10.15,0,0,1,3.914.744,9.648,9.648,0,0,1,3.1,2.022,9.338,9.338,0,0,1,2.05,3,9.216,9.216,0,0,1,.742,3.68V9.5a9.3,9.3,0,0,1-2.818,6.72,9.8,9.8,0,0,1-3.13,2.034A10.15,10.15,0,0,1,9.812,19Zm.038-4.566a4.556,4.556,0,0,0,1.91-.4,4.382,4.382,0,0,0,1.466-1.056,4.9,4.9,0,0,0,.942-1.552,5.224,5.224,0,0,0,.34-1.88V9.492a5.222,5.222,0,0,0-.34-1.878,4.768,4.768,0,0,0-2.46-2.65,4.472,4.472,0,0,0-1.91-.4,4.49,4.49,0,0,0-1.9.4,4.542,4.542,0,0,0-2.4,2.61,5.384,5.384,0,0,0-.328,1.878V9.5a5.224,5.224,0,0,0,.34,1.88,4.97,4.97,0,0,0,.956,1.564,4.588,4.588,0,0,0,1.478,1.084,4.442,4.442,0,0,0,1.9.4Z" transform="translate(0 0)" fill="#ec1c24"/><path d="M129.82,1.83h4.732l7.532,9.654V1.83h4.984V20.1h-4.446L134.8,10.076V20.1H129.82Z" transform="translate(-103.856 -1.466)" fill="#ec1c24"/><path d="M253.07,1.83h14.664v4.3h-9.686V8.9h8.768v4h-8.768v2.89h9.812V20.1h-14.8Z" transform="translate(-202.448 -1.466)" fill="#ec1c24"/><path d="M682.751,19a10.144,10.144,0,0,1-3.914-.744,9.6,9.6,0,0,1-3.106-2.022,9.333,9.333,0,0,1-2.048-3,9.175,9.175,0,0,1-.744-3.68V9.5a9.31,9.31,0,0,1,2.812-6.722A9.841,9.841,0,0,1,678.883.744a10.668,10.668,0,0,1,7.828,0,9.657,9.657,0,0,1,3.106,2.022,9.331,9.331,0,0,1,2.048,3,9.184,9.184,0,0,1,.744,3.68V9.5a9.318,9.318,0,0,1-2.818,6.72,9.835,9.835,0,0,1-3.132,2.034A10.144,10.144,0,0,1,682.751,19Zm.04-4.566a4.563,4.563,0,0,0,1.91-.4,4.354,4.354,0,0,0,1.45-1.052,4.9,4.9,0,0,0,.942-1.552,5.183,5.183,0,0,0,.342-1.88V9.5a5.18,5.18,0,0,0-.342-1.878,4.652,4.652,0,0,0-6.258-2.662,4.542,4.542,0,0,0-2.4,2.61,5.381,5.381,0,0,0-.326,1.878V9.5a5.182,5.182,0,0,0,.34,1.88,4.93,4.93,0,0,0,.954,1.564,4.6,4.6,0,0,0,1.48,1.084,4.436,4.436,0,0,0,1.9.4Z" transform="translate(-538.352 -0.002)" fill="#ec1c24"/><path d="M802.73,1.83h4.734l7.53,9.654V1.83h4.99V20.1h-4.45l-7.82-10.02V20.1H802.73Z" transform="translate(-642.184 -1.466)" fill="#ec1c24"/><path d="M926,1.83h14.666v4.3h-9.678V8.9h8.768v4h-8.768v2.89H940.8V20.1H926Z" transform="translate(-740.801 -1.466)" fill="#ec1c24"/><path d="M401,19a10.162,10.162,0,0,1-3.916-.744,9.584,9.584,0,0,1-3.1-2.022,9.332,9.332,0,0,1-2.048-3,9.177,9.177,0,0,1-.744-3.68V9.5a9.31,9.31,0,0,1,2.818-6.722,9.81,9.81,0,0,1,3.13-2.036,10.672,10.672,0,0,1,7.83,0,9.648,9.648,0,0,1,3.1,2.022,9.332,9.332,0,0,1,2.048,3,9.182,9.182,0,0,1,.744,3.68V9.5a9.318,9.318,0,0,1-2.818,6.72,9.8,9.8,0,0,1-3.13,2.034A10.158,10.158,0,0,1,401,19Zm.038-4.566a4.556,4.556,0,0,0,1.91-.4,4.382,4.382,0,0,0,1.466-1.056,4.973,4.973,0,0,0,.936-1.548,5.224,5.224,0,0,0,.34-1.88V9.5a5.222,5.222,0,0,0-.34-1.878,4.845,4.845,0,0,0-.968-1.566,4.784,4.784,0,0,0-1.492-1.082,4.442,4.442,0,0,0-1.91-.4,4.506,4.506,0,0,0-1.9.4,4.622,4.622,0,0,0-1.464,1.056,4.551,4.551,0,0,0-.942,1.554,5.4,5.4,0,0,0-.326,1.864V9.5a5.224,5.224,0,0,0,.34,1.88,4.934,4.934,0,0,0,.956,1.564,4.588,4.588,0,0,0,1.478,1.084,4.442,4.442,0,0,0,1.914.4Z" transform="translate(-312.952 -0.002)" fill="#ec1c24"/><path d="M521,1.83h4.732l7.534,9.654V1.83h4.984V20.1H533.8l-7.818-10.02V20.1H521Z" transform="translate(-416.8 -1.466)" fill="#ec1c24"/><path d="M232.216,148.307a2.092,2.092,0,0,1-.8-.154,1.954,1.954,0,0,1-.646-.426,2.068,2.068,0,0,1-.6-1.468v-.012a2.06,2.06,0,0,1,.6-1.462,2,2,0,0,1,.66-.438,2.144,2.144,0,0,1,.834-.158,2.481,2.481,0,0,1,.554.058,1.9,1.9,0,0,1,.456.17,1.785,1.785,0,0,1,.372.264,2.048,2.048,0,0,1,.3.334l-.826.638a1.448,1.448,0,0,0-.374-.34.936.936,0,0,0-.492-.124.89.89,0,0,0-.382.082.936.936,0,0,0-.3.224,1.044,1.044,0,0,0-.2.334,1.2,1.2,0,0,0-.07.4v.012a1.235,1.235,0,0,0,.07.416,1.034,1.034,0,0,0,.2.336.906.906,0,0,0,.3.224.89.89,0,0,0,.382.082,1.108,1.108,0,0,0,.28-.034.862.862,0,0,0,.232-.1,1.316,1.316,0,0,0,.2-.154,2.461,2.461,0,0,0,.184-.2l.826.588a3.1,3.1,0,0,1-.308.356,1.72,1.72,0,0,1-.38.282,1.97,1.97,0,0,1-.474.188,2.433,2.433,0,0,1-.6.08Z" transform="translate(-184.136 -115.353)" fill="#ec1c24"/><path d="M261.488,148.292a2.186,2.186,0,0,1-.848-.162,2.088,2.088,0,0,1-.674-.438,2.049,2.049,0,0,1-.444-.652,1.974,1.974,0,0,1-.162-.8v-.012a2.02,2.02,0,0,1,.612-1.456,2.116,2.116,0,0,1,.678-.442,2.332,2.332,0,0,1,1.7,0,2.1,2.1,0,0,1,.672.438,2.05,2.05,0,0,1,.444.652,1.974,1.974,0,0,1,.162.8v.012a2,2,0,0,1-.162.8,1.968,1.968,0,0,1-.45.656,2.116,2.116,0,0,1-.686.448,2.186,2.186,0,0,1-.84.156Zm0-.99a1,1,0,0,0,.414-.086.964.964,0,0,0,.318-.228,1.12,1.12,0,0,0,.278-.744v-.012a1.118,1.118,0,0,0-.074-.4,1.067,1.067,0,0,0-.21-.338,1.041,1.041,0,0,0-.324-.236.964.964,0,0,0-.414-.086.976.976,0,0,0-.41.084.963.963,0,0,0-.318.228.988.988,0,0,0-.2.338,1.15,1.15,0,0,0-.072.4v.012a1.154,1.154,0,0,0,.074.4,1.064,1.064,0,0,0,.2.338.97.97,0,0,0,.734.324Z" transform="translate(-207.488 -115.338)" fill="#ec1c24"/><path d="M292,144.58h1.16l.944,1.534.946-1.534h1.15v3.96h-1.09v-2.276l-1.01,1.55h-.024l-1-1.538v2.262H292Z" transform="translate(-233.6 -115.666)" fill="#ec1c24"/><path d="M325,144.578h2.028a2,2,0,0,1,.638.09,1.138,1.138,0,0,1,.44.266.885.885,0,0,1,.188.278.933.933,0,0,1,.066.362v.012a.858.858,0,0,1-.17.556,1.13,1.13,0,0,1-.436.326,1.342,1.342,0,0,1,.576.342.876.876,0,0,1,.212.624v.012a.94.94,0,0,1-.4.8,1.842,1.842,0,0,1-1.106.288H325Zm1.76,1.578a.736.736,0,0,0,.388-.084.288.288,0,0,0,.132-.26V145.8a.288.288,0,0,0-.124-.252.654.654,0,0,0-.374-.088h-.712v.7Zm.158,1.5a.684.684,0,0,0,.39-.094.3.3,0,0,0,.136-.268v-.012a.308.308,0,0,0-.13-.26.686.686,0,0,0-.4-.1h-.838v.736Z" transform="translate(-260 -115.664)" fill="#ec1c24"/><path d="M353.86,144.44h1.056l1.686,3.988h-1.176l-.282-.708h-1.528l-.282.708H352.18Zm.96,2.432-.44-1.126-.448,1.126Z" transform="translate(-281.744 -115.554)" fill="#ec1c24"/><path d="M384.788,145.542H383.6v-.962h3.48v.962h-1.2v3h-1.1Z" transform="translate(-306.88 -115.666)" fill="#ec1c24"/><path d="M607.786,144.44h1.056l1.686,3.988h-1.176l-.288-.708h-1.528l-.282.708H606.1Zm.96,2.432-.44-1.126-.448,1.126Z" transform="translate(-484.88 -115.554)" fill="#ec1c24"/><path d="M638.65,144.58h1.7a2.324,2.324,0,0,1,.678.094,1.446,1.446,0,0,1,.52.272,1.182,1.182,0,0,1,.332.438,1.454,1.454,0,0,1,.116.588v.012a1.423,1.423,0,0,1-.128.616,1.226,1.226,0,0,1-.354.446,1.494,1.494,0,0,1-.54.272,2.456,2.456,0,0,1-.682.09h-.542v1.132h-1.1Zm1.618,1.968a.708.708,0,0,0,.462-.138.472.472,0,0,0,.166-.378v-.012a.476.476,0,0,0-.166-.39.74.74,0,0,0-.468-.134h-.514v1.052Z" transform="translate(-510.92 -115.666)" fill="#ec1c24"/><path d="M666.17,144.58h1.7a2.324,2.324,0,0,1,.678.094,1.446,1.446,0,0,1,.52.272,1.182,1.182,0,0,1,.332.438,1.454,1.454,0,0,1,.116.588v.012a1.423,1.423,0,0,1-.128.616,1.226,1.226,0,0,1-.354.446,1.494,1.494,0,0,1-.54.272,2.468,2.468,0,0,1-.682.09h-.542v1.132h-1.1Zm1.618,1.968a.708.708,0,0,0,.462-.138.472.472,0,0,0,.166-.378v-.012a.476.476,0,0,0-.166-.39.74.74,0,0,0-.468-.134h-.514v1.052Z" transform="translate(-532.936 -115.666)" fill="#ec1c24"/><path d="M693.794,144.44h1.058l1.686,3.988h-1.176l-.288-.708h-1.528l-.282.708H692.11Zm.962,2.432-.44-1.126-.448,1.126Z" transform="translate(-553.688 -115.554)" fill="#ec1c24"/><path d="M724.612,144.577h1.868a2.31,2.31,0,0,1,.776.114,1.31,1.31,0,0,1,.514.316,1.222,1.222,0,0,1,.35.922v.012a1.238,1.238,0,0,1-.22.758,1.384,1.384,0,0,1-.6.458l.946,1.38h-1.268l-.8-1.2h-.48v1.2h-1.1Zm1.822,1.9a.67.67,0,0,0,.436-.126.43.43,0,0,0,.152-.342V146a.416.416,0,0,0-.158-.354.738.738,0,0,0-.436-.116h-.718v.95Z" transform="translate(-579.68 -115.663)" fill="#ec1c24"/><path d="M753.48,144.58h3.18v.934h-2.1v.6h1.9v.864h-1.9v.628h2.128v.934h-3.2Z" transform="translate(-602.784 -115.666)" fill="#ec1c24"/><path d="M780.83,144.58h1.1v3h1.916v.962H780.83Z" transform="translate(-624.665 -115.666)" fill="#ec1c24"/><path d="M500.74,127.46l0,0v0Z" transform="translate(-400.592 -101.97)" fill="#ec1c24"/><path d="M469.344,128.9c-2.2,1.5-7.142,1.2-10.466-1.428-3.326,2.636-8.27,2.928-10.468,1.428,0,0,.788,6.42.8,6.494.106.846.91,1.2,3.138,1.556a50.261,50.261,0,0,0,13.06,0c2.228-.348,3.046-.8,3.138-1.556C468.55,135.362,469.352,128.892,469.344,128.9Zm-18.656,6.544a.052.052,0,0,1,0-.1,41.192,41.192,0,0,1,16.376,0,.052.052,0,0,1,0,.1,41.191,41.191,0,0,1-16.376,0Z" transform="translate(-358.729 -101.978)" fill="#ec1c24"/></g></svg>