<svg xmlns="http://www.w3.org/2000/svg" width="32" height="32" viewBox="0 0 32 32"><g transform="translate(-871 -298)"><path d="M5,1.5A3.5,3.5,0,0,0,1.5,5V27A3.5,3.5,0,0,0,5,30.5H27A3.5,3.5,0,0,0,30.5,27V5A3.5,3.5,0,0,0,27,1.5H5M5,0H27a5,5,0,0,1,5,5V27a5,5,0,0,1-5,5H5a5,5,0,0,1-5-5V5A5,5,0,0,1,5,0Z" transform="translate(871 298)" fill="#ed1c24"/><path d="M235.727,228.964h-5.016v-5.016a.872.872,0,1,0-1.745,0v5.016H223.95a.872.872,0,0,0,0,1.745h5.016v5.016a.872.872,0,1,0,1.745,0v-5.016h5.016a.872.872,0,1,0,0-1.745Z" transform="translate(656.922 83.924)" fill="#ed1c24"/></g></svg>