<svg xmlns="http://www.w3.org/2000/svg" width="29.217" height="29.217" viewBox="0 0 29.217 29.217"><path d="M14.609,0C10.64,0,10.145.018,8.586.088A10.772,10.772,0,0,0,5.04.767,7.154,7.154,0,0,0,2.452,2.452,7.128,7.128,0,0,0,.767,5.04,10.741,10.741,0,0,0,.088,8.586C.015,10.144,0,10.64,0,14.609s.018,4.464.088,6.022a10.779,10.779,0,0,0,.679,3.546,7.164,7.164,0,0,0,1.685,2.588A7.144,7.144,0,0,0,5.04,28.45a10.786,10.786,0,0,0,3.546.679c1.558.073,2.054.088,6.022.088s4.464-.018,6.022-.088a10.811,10.811,0,0,0,3.546-.679,7.466,7.466,0,0,0,4.273-4.273,10.779,10.779,0,0,0,.679-3.546c.073-1.558.088-2.054.088-6.022s-.018-4.464-.088-6.022A10.8,10.8,0,0,0,28.45,5.04a7.17,7.17,0,0,0-1.685-2.588A7.118,7.118,0,0,0,24.177.767,10.747,10.747,0,0,0,20.631.088C19.073.015,18.577,0,14.609,0Zm0,2.63c3.9,0,4.364.019,5.9.086a8.049,8.049,0,0,1,2.711.505A4.807,4.807,0,0,1,26,5.993,8.066,8.066,0,0,1,26.5,8.7c.069,1.541.085,2,.085,5.9s-.018,4.364-.09,5.9a8.221,8.221,0,0,1-.513,2.711,4.639,4.639,0,0,1-1.094,1.682A4.558,4.558,0,0,1,23.208,26a8.125,8.125,0,0,1-2.721.5c-1.551.069-2.007.085-5.915.085s-4.366-.018-5.915-.09a8.284,8.284,0,0,1-2.722-.513,4.524,4.524,0,0,1-1.679-1.094,4.436,4.436,0,0,1-1.1-1.68,8.291,8.291,0,0,1-.511-2.721c-.055-1.534-.074-2.007-.074-5.9s.019-4.366.074-5.918a8.281,8.281,0,0,1,.511-2.72,4.33,4.33,0,0,1,1.1-1.681A4.321,4.321,0,0,1,5.935,3.179a8.086,8.086,0,0,1,2.7-.513c1.552-.055,2.009-.073,5.915-.073l.055.037Zm0,4.478a7.5,7.5,0,1,0,7.5,7.5A7.5,7.5,0,0,0,14.609,7.107Zm0,12.371a4.87,4.87,0,1,1,4.87-4.87A4.868,4.868,0,0,1,14.609,19.478ZM24.16,6.811a1.753,1.753,0,1,1-1.753-1.752A1.754,1.754,0,0,1,24.16,6.811Z" fill="#fff"/></svg>