<svg xmlns="http://www.w3.org/2000/svg" width="132.067" height="23.377" viewBox="0 0 132.067 23.377"><g transform="translate(0.001 0.002)"><path d="M6.479,12.544a6.7,6.7,0,0,1-2.585-.491,6.319,6.319,0,0,1-2.046-1.338A6.162,6.162,0,0,1,.5,8.734,6.059,6.059,0,0,1,0,6.3V6.27A6.148,6.148,0,0,1,1.86,1.834,6.5,6.5,0,0,1,3.929.489,6.7,6.7,0,0,1,6.513,0,6.7,6.7,0,0,1,9.1.489a6.371,6.371,0,0,1,2.05,1.335A6.166,6.166,0,0,1,12.5,3.805a6.086,6.086,0,0,1,.49,2.43V6.27a6.14,6.14,0,0,1-1.861,4.437A6.471,6.471,0,0,1,9.063,12.05a6.7,6.7,0,0,1-2.585.494ZM6.5,9.529a3.009,3.009,0,0,0,1.261-.264,2.894,2.894,0,0,0,.968-.7,3.234,3.234,0,0,0,.622-1.025A3.45,3.45,0,0,0,9.58,6.3V6.267a3.448,3.448,0,0,0-.225-1.24,3.148,3.148,0,0,0-1.624-1.75A2.953,2.953,0,0,0,6.47,3.013a2.965,2.965,0,0,0-1.252.264A3,3,0,0,0,3.633,5a3.555,3.555,0,0,0-.217,1.24v.034a3.45,3.45,0,0,0,.225,1.241,3.282,3.282,0,0,0,.631,1.033,3.03,3.03,0,0,0,.976.716A2.933,2.933,0,0,0,6.5,9.527Z" transform="translate(0)" fill="#ec1c24"/><path d="M129.82,1.83h3.125L137.918,8.2V1.83h3.291V13.892h-2.936l-5.163-6.617v6.617H129.82Z" transform="translate(-112.675 -1.59)" fill="#ec1c24"/><path d="M253.067,1.83h9.683V4.672h-6.4V6.5h5.79V9.14h-5.79v1.908h6.479v2.843H253.06Z" transform="translate(-219.639 -1.59)" fill="#ec1c24"/><path d="M679.418,12.547a6.7,6.7,0,0,1-2.585-.491,6.34,6.34,0,0,1-2.051-1.335,6.159,6.159,0,0,1-1.352-1.981,6.063,6.063,0,0,1-.491-2.43V6.275A6.148,6.148,0,0,1,674.8,1.836,6.5,6.5,0,0,1,676.864.492a7.044,7.044,0,0,1,5.169,0,6.378,6.378,0,0,1,2.051,1.335,6.163,6.163,0,0,1,1.352,1.981,6.062,6.062,0,0,1,.491,2.43v.034a6.154,6.154,0,0,1-1.861,4.437A6.5,6.5,0,0,1,682,12.053,6.7,6.7,0,0,1,679.418,12.547Zm.026-3.015a3.014,3.014,0,0,0,1.261-.264,2.876,2.876,0,0,0,.958-.695,3.235,3.235,0,0,0,.622-1.025,3.42,3.42,0,0,0,.226-1.241V6.272a3.421,3.421,0,0,0-.226-1.24,3.071,3.071,0,0,0-4.132-1.758A3,3,0,0,0,676.568,5a3.551,3.551,0,0,0-.215,1.24v.034a3.421,3.421,0,0,0,.224,1.241,3.256,3.256,0,0,0,.63,1.033,3.036,3.036,0,0,0,.977.716,2.929,2.929,0,0,0,1.256.267Z" transform="translate(-584.066 -0.002)" fill="#ec1c24"/><path d="M802.73,1.83h3.126L810.828,8.2V1.83h3.3V13.892h-2.938l-5.164-6.617v6.617H802.73Z" transform="translate(-696.716 -1.59)" fill="#ec1c24"/><path d="M926,1.83h9.685V4.672h-6.391V6.5h5.79V9.14h-5.79v1.908h6.479v2.843H926Z" transform="translate(-803.706 -1.59)" fill="#ec1c24"/><path d="M397.668,12.546a6.71,6.71,0,0,1-2.586-.491,6.329,6.329,0,0,1-2.05-1.335,6.163,6.163,0,0,1-1.352-1.981,6.058,6.058,0,0,1-.491-2.43V6.274a6.148,6.148,0,0,1,1.861-4.439A6.478,6.478,0,0,1,395.117.491a7.047,7.047,0,0,1,5.17,0,6.37,6.37,0,0,1,2.05,1.335,6.163,6.163,0,0,1,1.352,1.981,6.064,6.064,0,0,1,.491,2.43v.034a6.153,6.153,0,0,1-1.861,4.437,6.471,6.471,0,0,1-2.067,1.343A6.708,6.708,0,0,1,397.668,12.546Zm.025-3.015a3.009,3.009,0,0,0,1.261-.264,2.894,2.894,0,0,0,.968-.7,3.283,3.283,0,0,0,.618-1.022,3.45,3.45,0,0,0,.225-1.241V6.272a3.447,3.447,0,0,0-.225-1.24A3.2,3.2,0,0,0,399.9,4a3.159,3.159,0,0,0-.985-.714,2.933,2.933,0,0,0-1.261-.264,2.975,2.975,0,0,0-1.253.264,3.052,3.052,0,0,0-.967.7,3,3,0,0,0-.622,1.026,3.566,3.566,0,0,0-.215,1.231v.034a3.449,3.449,0,0,0,.225,1.241,3.258,3.258,0,0,0,.631,1.033,3.029,3.029,0,0,0,.976.716,2.933,2.933,0,0,0,1.264.267Z" transform="translate(-339.526 -0.002)" fill="#ec1c24"/><path d="M521,1.83h3.125L529.1,8.2V1.83h3.291V13.892h-2.938L524.29,7.275v6.617H521Z" transform="translate(-452.193 -1.59)" fill="#ec1c24"/><path d="M231.521,146.909a1.381,1.381,0,0,1-.528-.1,1.29,1.29,0,0,1-.427-.281,1.365,1.365,0,0,1-.4-.969v-.008a1.36,1.36,0,0,1,.4-.965,1.32,1.32,0,0,1,.436-.289,1.416,1.416,0,0,1,.551-.1,1.638,1.638,0,0,1,.366.038,1.255,1.255,0,0,1,.3.112,1.177,1.177,0,0,1,.246.174,1.351,1.351,0,0,1,.2.221l-.545.421a.956.956,0,0,0-.247-.225.618.618,0,0,0-.325-.082.587.587,0,0,0-.252.054.618.618,0,0,0-.2.148.69.69,0,0,0-.132.221.792.792,0,0,0-.046.264v.008a.816.816,0,0,0,.046.275.683.683,0,0,0,.132.222.6.6,0,0,0,.2.148.587.587,0,0,0,.252.054.734.734,0,0,0,.185-.022.57.57,0,0,0,.153-.065.867.867,0,0,0,.132-.1,1.625,1.625,0,0,0,.121-.132l.545.388a2.045,2.045,0,0,1-.2.235,1.135,1.135,0,0,1-.251.186,1.3,1.3,0,0,1-.313.124A1.606,1.606,0,0,1,231.521,146.909Z" transform="translate(-199.772 -125.149)" fill="#ec1c24"/><path d="M260.765,146.892a1.444,1.444,0,0,1-.56-.107,1.381,1.381,0,0,1-.445-.289,1.354,1.354,0,0,1-.293-.431,1.3,1.3,0,0,1-.107-.528v-.008a1.334,1.334,0,0,1,.4-.961,1.4,1.4,0,0,1,.448-.292,1.54,1.54,0,0,1,1.121,0,1.389,1.389,0,0,1,.444.289,1.353,1.353,0,0,1,.293.431,1.3,1.3,0,0,1,.107.528v.008a1.321,1.321,0,0,1-.107.528,1.3,1.3,0,0,1-.3.433,1.4,1.4,0,0,1-.453.3A1.443,1.443,0,0,1,260.765,146.892Zm0-.654a.66.66,0,0,0,.273-.057.636.636,0,0,0,.21-.151.739.739,0,0,0,.184-.491v-.008a.739.739,0,0,0-.049-.264.706.706,0,0,0-.139-.223.688.688,0,0,0-.214-.156.636.636,0,0,0-.273-.057.645.645,0,0,0-.271.055.637.637,0,0,0-.21.151.653.653,0,0,0-.132.223.76.76,0,0,0-.048.264v.008a.761.761,0,0,0,.049.264.7.7,0,0,0,.132.223.64.64,0,0,0,.485.214Z" transform="translate(-225.107 -125.132)" fill="#ec1c24"/><path d="M292,144.58h.766l.623,1.013.625-1.013h.759v2.615h-.72v-1.5l-.667,1.024h-.016l-.66-1.016v1.494H292Z" transform="translate(-253.437 -125.488)" fill="#ec1c24"/><path d="M325,144.578h1.339a1.32,1.32,0,0,1,.421.059.751.751,0,0,1,.291.176.585.585,0,0,1,.124.184.618.618,0,0,1,.044.239v.008a.566.566,0,0,1-.112.367.747.747,0,0,1-.288.215.886.886,0,0,1,.38.226.579.579,0,0,1,.14.412v.008a.621.621,0,0,1-.264.528,1.216,1.216,0,0,1-.73.19H325Zm1.162,1.042a.486.486,0,0,0,.256-.055.19.19,0,0,0,.087-.172v-.008a.19.19,0,0,0-.082-.166.431.431,0,0,0-.247-.058h-.47v.46Zm.1.99a.452.452,0,0,0,.258-.062.2.2,0,0,0,.09-.177v-.008a.2.2,0,0,0-.086-.172.453.453,0,0,0-.264-.063h-.553v.486Z" transform="translate(-282.079 -125.486)" fill="#ec1c24"/><path d="M353.289,144.44h.7l1.113,2.633h-.777l-.186-.468h-1.009l-.186.468h-.762Zm.634,1.606-.291-.744-.3.744Z" transform="translate(-305.669 -125.366)" fill="#ec1c24"/><path d="M384.384,145.215H383.6v-.635h2.3v.635h-.792V147.2h-.724Z" transform="translate(-332.939 -125.488)" fill="#ec1c24"/><path d="M607.213,144.44h.7l1.113,2.633h-.777l-.19-.468h-1.009l-.186.468H606.1Zm.634,1.606-.291-.744-.3.744Z" transform="translate(-526.054 -125.366)" fill="#ec1c24"/><path d="M638.65,144.579h1.121a1.534,1.534,0,0,1,.448.062.954.954,0,0,1,.343.18.782.782,0,0,1,.219.289.965.965,0,0,1,.077.388v.008a.944.944,0,0,1-.085.407.811.811,0,0,1-.234.294.985.985,0,0,1-.357.18,1.62,1.62,0,0,1-.45.059h-.358v.747h-.725Zm1.068,1.3a.468.468,0,0,0,.305-.091.312.312,0,0,0,.11-.25v-.008a.315.315,0,0,0-.11-.258.489.489,0,0,0-.309-.089h-.339v.695Z" transform="translate(-554.306 -125.487)" fill="#ec1c24"/><path d="M666.17,144.579h1.121a1.534,1.534,0,0,1,.448.062.955.955,0,0,1,.343.18.78.78,0,0,1,.219.289.961.961,0,0,1,.077.388v.008a.942.942,0,0,1-.085.407.809.809,0,0,1-.234.294.988.988,0,0,1-.357.18,1.631,1.631,0,0,1-.45.059H666.9v.747h-.725Zm1.068,1.3a.468.468,0,0,0,.305-.091.311.311,0,0,0,.109-.25v-.008a.314.314,0,0,0-.109-.258.489.489,0,0,0-.309-.089H666.9v.695Z" transform="translate(-578.191 -125.487)" fill="#ec1c24"/><path d="M693.222,144.44h.7l1.113,2.633h-.776l-.19-.468h-1.009l-.186.468h-.762Zm.635,1.606-.291-.744-.3.744Z" transform="translate(-600.705 -125.366)" fill="#ec1c24"/><path d="M724.608,144.577h1.233a1.525,1.525,0,0,1,.512.075.866.866,0,0,1,.339.209.808.808,0,0,1,.231.609v.008a.817.817,0,0,1-.145.5.913.913,0,0,1-.4.3l.625.911h-.837l-.528-.792h-.317v.792H724.6Zm1.2,1.255a.442.442,0,0,0,.288-.083.284.284,0,0,0,.1-.226v-.008a.275.275,0,0,0-.1-.234.487.487,0,0,0-.288-.077h-.474v.627Z" transform="translate(-628.904 -125.485)" fill="#ec1c24"/><path d="M753.48,144.58h2.1v.617h-1.387v.4h1.256v.571h-1.256v.415H755.6v.617h-2.113Z" transform="translate(-653.97 -125.488)" fill="#ec1c24"/><path d="M780.83,144.58h.725v1.981h1.265v.635h-1.99Z" transform="translate(-677.708 -125.488)" fill="#ec1c24"/><path d="M500.74,127.46h0Z" transform="translate(-434.609 -110.629)" fill="#ec1c24"/><path d="M462.233,128.413c-1.453.99-4.716.792-6.911-.943-2.2,1.741-5.461,1.933-6.912.943,0,0,.52,4.239.528,4.288.07.559.6.792,2.072,1.027a33.188,33.188,0,0,0,8.624,0c1.471-.23,2.011-.528,2.072-1.027C461.709,132.681,462.239,128.409,462.233,128.413Zm-12.319,4.321a.034.034,0,0,1,0-.065,27.2,27.2,0,0,1,10.814,0,.034.034,0,0,1,0,.065,27.2,27.2,0,0,1-10.814,0Z" transform="translate(-389.19 -110.637)" fill="#ec1c24"/></g></svg>