<svg xmlns="http://www.w3.org/2000/svg" width="26.247" height="22.855" viewBox="0 0 26.247 22.855"><path d="M17.463,31.78l-.971-.606A47.5,47.5,0,0,1,10.3,26.453c-3.958-3.6-5.965-6.9-5.965-9.8a7.584,7.584,0,0,1,2.367-5.759,7.682,7.682,0,0,1,5.159-1.969,8.109,8.109,0,0,1,5.6,2.279,8.107,8.107,0,0,1,5.6-2.279,7.682,7.682,0,0,1,5.159,1.969,7.584,7.584,0,0,1,2.367,5.759c0,2.9-2.007,6.2-5.965,9.8a47.581,47.581,0,0,1-6.188,4.721Zm-5.6-21.355A5.93,5.93,0,0,0,5.84,16.653c0,2.428,1.893,5.433,5.474,8.69A46.732,46.732,0,0,0,17.287,29.9l.176.11.176-.11a45.923,45.923,0,0,0,5.973-4.558c3.581-3.257,5.474-6.262,5.474-8.69a5.929,5.929,0,0,0-6.026-6.228,6.651,6.651,0,0,0-5.03,2.356l-.568.661-.569-.661A6.656,6.656,0,0,0,11.866,10.425Z" transform="translate(-4.34 -8.925)" fill="#363636"/></svg>