<svg xmlns="http://www.w3.org/2000/svg" width="25.374" height="24.226" viewBox="0 0 25.374 24.226"><path d="M180.654,177.027a.963.963,0,0,1,1.677,0l3.562,6.316a.6.6,0,0,0,.407.3l7.108,1.436a.963.963,0,0,1,.518,1.595l-4.907,5.339a.606.606,0,0,0-.155.478l.831,7.2a.963.963,0,0,1-1.357.986l-6.594-3.016a.6.6,0,0,0-.5,0l-6.594,3.016a.963.963,0,0,1-1.357-.986l.831-7.2a.607.607,0,0,0-.155-.478l-4.907-5.339a.963.963,0,0,1,.518-1.595l7.108-1.436a.6.6,0,0,0,.407-.3l3.562-6.316Z" transform="translate(-168.806 -176.538)" fill="#fb0" fill-rule="evenodd"/></svg>