<svg xmlns="http://www.w3.org/2000/svg" width="175.987" height="67.856" viewBox="0 0 175.987 67.856"><g transform="translate(75.993 43)"><g transform="translate(-75.993 -43)"><circle cx="2.777" cy="2.777" r="2.777" transform="translate(136.745)" fill="rgba(188,203,214,0.48)"/><path d="M112.04,9.946h-3.548v3.6h-1.416v-3.6h-3.532V8.663h3.532V5.048h1.416V8.663h3.548Z" transform="translate(40.203 1.96)" fill="#1cbf73"/><circle cx="1.893" cy="1.893" r="1.893" transform="translate(0 16.849)" fill="rgba(188,203,214,0.48)"/><circle cx="1.893" cy="1.893" r="1.893" transform="translate(17.039 8.33)" fill="rgba(188,203,214,0.48)"/><path d="M16.359,18.946H12.81v3.6H11.394v-3.6H7.862V17.663h3.532V14.048H12.81v3.615h3.548Z" transform="translate(3.053 5.454)" fill="#1cbf73"/><path d="M90.716,18.794a1.779,1.779,0,0,0-2.515,0L66.86,40.076l-7.7-8.363a1.779,1.779,0,1,0-2.617,2.41L65.5,43.847a1.777,1.777,0,0,0,1.271.573h.038a1.781,1.781,0,0,0,1.256-.519L90.713,21.31A1.779,1.779,0,0,0,90.716,18.794Z" transform="translate(21.771 7.094)" fill="#1cbf73"/><path d="M93.422,35.822A1.779,1.779,0,0,0,91.643,37.6,20.043,20.043,0,1,1,71.6,17.558,1.779,1.779,0,1,0,71.6,14,23.6,23.6,0,1,0,95.2,37.6,1.779,1.779,0,0,0,93.422,35.822Z" transform="translate(18.637 5.436)" fill="#1cbf73"/><circle cx="2.064" cy="2.064" r="2.064" transform="translate(156.272 41.161) rotate(-33.685)" fill="rgba(188,203,214,0.48)"/><circle cx="2.064" cy="2.064" r="2.064" transform="translate(157.704 60.053) rotate(-33.685)" fill="#1cbf73"/><path d="M128.943,45.327,125.99,47.3l1.995,2.994-1.177.785-2-2.994-2.939,1.959-.711-1.067,2.939-1.959-2.006-3.008,1.179-.785,2,3.008,2.953-1.968Z" transform="translate(47.043 16.781)" fill="#e8e8e8"/></g></g></svg>