<svg xmlns="http://www.w3.org/2000/svg" width="29.217" height="23.729" viewBox="0 0 29.217 23.729"><path d="M26.214,9.295c.019.26.019.519.019.779,0,7.916-6.025,17.037-17.037,17.037A16.922,16.922,0,0,1,0,24.422a12.388,12.388,0,0,0,1.446.074A11.992,11.992,0,0,0,8.88,21.938a6,6,0,0,1-5.6-4.153,7.551,7.551,0,0,0,1.131.093,6.333,6.333,0,0,0,1.576-.2,5.989,5.989,0,0,1-4.8-5.877v-.074a6.031,6.031,0,0,0,2.707.76A6,6,0,0,1,2.039,4.475a17.021,17.021,0,0,0,12.347,6.266,6.76,6.76,0,0,1-.148-1.372A5.994,5.994,0,0,1,24.6,5.272a11.789,11.789,0,0,0,3.8-1.446,5.972,5.972,0,0,1-2.633,3.3A12,12,0,0,0,29.217,6.2a12.872,12.872,0,0,1-3,3.1Z" transform="translate(0 -3.381)" fill="#fff"/></svg>